{
	"accessors": [
		{
			"bufferView": 0,
			"byteOffset": 0,
			"componentType": 5126,
			"count": 928,
			"max": [
				2.0,
				5.0,
				0.5739380121231079
			],
			"min": [
				-2.0,
				0.0,
				0.31588101387023926
			],
			"name": "Frame_1_0_positions",
			"type": "VEC3"
		},
		{
			"bufferView": 1,
			"byteOffset": 0,
			"componentType": 5126,
			"count": 928,
			"max": [
				1.0,
				0.9999999403953552,
				0.9999998807907104
			],
			"min": [
				-1.0,
				-0.9999999403953552,
				-1.0
			],
			"name": "Frame_1_0_normals",
			"type": "VEC3"
		},
		{
			"bufferView": 2,
			"byteOffset": 0,
			"componentType": 5126,
			"count": 928,
			"max": [
				0.8747940063476563,
				1.0
			],
			"min": [
				0.12520599365234375,
				0.0
			],
			"name": "Frame_1_0_texcoords",
			"type": "VEC2"
		},
		{
			"bufferView": 3,
			"byteOffset": 0,
			"componentType": 5123,
			"count": 3768,
			"max": [
				927.0
			],
			"min": [
				0.0
			],
			"name": "Frame_1_0_indices",
			"type": "SCALAR"
		},
		{
			"bufferView": 4,
			"byteOffset": 0,
			"componentType": 5126,
			"count": 16,
			"max": [
				1.423408031463623,
				4.47199821472168,
				0.4763070046901703
			],
			"min": [
				-1.423408031463623,
				0.5280020236968994,
				0.4763070046901703
			],
			"name": "Frame_1_1_positions",
			"type": "VEC3"
		},
		{
			"bufferView": 5,
			"byteOffset": 0,
			"componentType": 5126,
			"count": 16,
			"max": [
				0.0,
				0.0,
				1.0
			],
			"min": [
				0.0,
				0.0,
				1.0
			],
			"name": "Frame_1_1_normals",
			"type": "VEC3"
		},
		{
			"bufferView": 6,
			"byteOffset": 0,
			"componentType": 5126,
			"count": 16,
			"max": [
				1.0,
				1.0
			],
			"min": [
				0.0,
				0.0
			],
			"name": "Frame_1_1_texcoords",
			"type": "VEC2"
		},
		{
			"bufferView": 7,
			"byteOffset": 0,
			"componentType": 5123,
			"count": 42,
			"max": [
				15.0
			],
			"min": [
				0.0
			],
			"name": "Frame_1_1_indices",
			"type": "SCALAR"
		}
	],
	"asset": {
		"generator": "Gestaltor 2020.2.1 Alpha 'Zuckerwatte' (CI-38fb8ee1*)",
		"version": "2.0"
	},
	"bufferViews": [
		{
			"buffer": 0,
			"byteLength": 11136,
			"byteOffset": 0,
			"byteStride": 12,
			"target": 34962
		},
		{
			"buffer": 0,
			"byteLength": 11136,
			"byteOffset": 11136,
			"byteStride": 12,
			"target": 34962
		},
		{
			"buffer": 0,
			"byteLength": 7424,
			"byteOffset": 22272,
			"byteStride": 8,
			"target": 34962
		},
		{
			"buffer": 0,
			"byteLength": 7536,
			"byteOffset": 29696,
			"target": 34963
		},
		{
			"buffer": 0,
			"byteLength": 192,
			"byteOffset": 37232,
			"byteStride": 12,
			"target": 34962
		},
		{
			"buffer": 0,
			"byteLength": 192,
			"byteOffset": 37424,
			"byteStride": 12,
			"target": 34962
		},
		{
			"buffer": 0,
			"byteLength": 128,
			"byteOffset": 37616,
			"byteStride": 8,
			"target": 34962
		},
		{
			"buffer": 0,
			"byteLength": 84,
			"byteOffset": 37744,
			"target": 34963
		}
	],
	"buffers": [
		{
			"byteLength": 37828,
			"uri": "gallea-small.bin"
		}
	],
	"images": [
		{
			"mimeType": "image/jpeg",
			"name": "Daisy",
			"uri": "gallea-small_image_0.jpg"
		}
	],
	"materials": [
		{
			"alphaMode": "OPAQUE",
			"doubleSided": false,
			"emissiveFactor": [
				0.0,
				0.0,
				0.0
			],
			"name": "mia_material1SG",
			"pbrMetallicRoughness": {
				"baseColorFactor": [
					0.5,
					0.5,
					0.5,
					1.0
				],
				"metallicFactor": 0.0,
				"roughnessFactor": 1.0
			}
		},
		{
			"alphaMode": "OPAQUE",
			"doubleSided": false,
			"emissiveFactor": [
				0.0,
				0.0,
				0.0
			],
			"name": "lambert2SG",
			"pbrMetallicRoughness": {
				"baseColorFactor": [
					1.0,
					1.0,
					1.0,
					1.0
				],
				"baseColorTexture": {
					"index": 0
				},
				"metallicFactor": 0.0,
				"roughnessFactor": 1.0
			}
		}
	],
	"meshes": [
		{
			"name": "Frame_1",
			"primitives": [
				{
					"attributes": {
						"NORMAL": 1,
						"POSITION": 0,
						"TEXCOORD_0": 2
					},
					"indices": 3,
					"material": 0,
					"mode": 4
				},
				{
					"attributes": {
						"NORMAL": 5,
						"POSITION": 4,
						"TEXCOORD_0": 6
					},
					"indices": 7,
					"material": 1,
					"mode": 4
				}
			]
		}
	],
	"nodes": [
		{
			"mesh": 0,
			"name": "Frame",
			"scale": [
				0.05,
				0.05,
				0.05
			]
		}
	],
	"samplers": [
		{
			"magFilter": 9729,
			"minFilter": 9986,
			"wrapS": 10497,
			"wrapT": 10497
		}
	],
	"scene": 0,
	"scenes": [
		{
			"nodes": [
				0
			]
		}
	],
	"textures": [
		{
			"name": "Daisy",
			"sampler": 0,
			"source": 0
		}
	]
}