{
  "accessors": [
    {
      "name": "Frame_1_0_positions",
      "componentType": 5126,
      "count": 928,
      "min": [
        -2,
        0,
        0.31588101387023926
      ],
      "max": [
        2,
        5,
        0.5739380121231079
      ],
      "type": "VEC3",
      "bufferView": 0,
      "byteOffset": 0
    },
    {
      "name": "Frame_1_0_normals",
      "componentType": 5126,
      "count": 928,
      "min": [
        -1,
        -0.9999999403953552,
        -1
      ],
      "max": [
        1,
        0.9999999403953552,
        0.9999998807907104
      ],
      "type": "VEC3",
      "bufferView": 1,
      "byteOffset": 0
    },
    {
      "name": "Frame_1_0_texcoords",
      "componentType": 5126,
      "count": 928,
      "min": [
        0.12520599365234375,
        0
      ],
      "max": [
        0.8747940063476562,
        1
      ],
      "type": "VEC2",
      "bufferView": 2,
      "byteOffset": 0
    },
    {
      "name": "Frame_1_0_indices",
      "componentType": 5123,
      "count": 3768,
      "min": [
        0
      ],
      "max": [
        927
      ],
      "type": "SCALAR",
      "bufferView": 3,
      "byteOffset": 0
    },
    {
      "name": "Frame_1_1_positions",
      "componentType": 5126,
      "count": 16,
      "min": [
        -1.423408031463623,
        0.5280020236968994,
        0.4763070046901703
      ],
      "max": [
        1.423408031463623,
        4.47199821472168,
        0.4763070046901703
      ],
      "type": "VEC3",
      "bufferView": 0,
      "byteOffset": 11136
    },
    {
      "name": "Frame_1_1_normals",
      "componentType": 5126,
      "count": 16,
      "min": [
        0,
        0,
        1
      ],
      "max": [
        0,
        0,
        1
      ],
      "type": "VEC3",
      "bufferView": 1,
      "byteOffset": 11136
    },
    {
      "name": "Frame_1_1_texcoords",
      "componentType": 5126,
      "count": 16,
      "min": [
        0,
        0
      ],
      "max": [
        1,
        1
      ],
      "type": "VEC2",
      "bufferView": 2,
      "byteOffset": 7424
    },
    {
      "name": "Frame_1_1_indices",
      "componentType": 5123,
      "count": 42,
      "min": [
        0
      ],
      "max": [
        15
      ],
      "type": "SCALAR",
      "bufferView": 3,
      "byteOffset": 7536
    }
  ],
  "asset": {
    "generator": "obj2gltf",
    "version": "2.0"
  },
  "buffers": [
    {
      "name": "FrameOBJ",
      "byteLength": 236924,
      "uri": "data:application/octet-stream;base64,"
    }
  ],
  "bufferViews": [
    {
      "name": "bufferView_0",
      "buffer": 0,
      "byteLength": 11328,
      "byteOffset": 0,
      "byteStride": 12,
      "target": 34962
    },
    {
      "name": "bufferView_1",
      "buffer": 0,
      "byteLength": 11328,
      "byteOffset": 11328,
      "byteStride": 12,
      "target": 34962
    },
    {
      "name": "bufferView_2",
      "buffer": 0,
      "byteLength": 7552,
      "byteOffset": 22656,
      "byteStride": 8,
      "target": 34962
    },
    {
      "name": "bufferView_3",
      "buffer": 0,
      "byteLength": 7620,
      "byteOffset": 30208,
      "target": 34963
    },
    {
      "buffer": 0,
      "byteOffset": 37828,
      "byteLength": 199095
    }
  ],
  "images": [
    {
      "name": "Daisy",
      "mimeType": "image/jpeg",
      "bufferView": 4
    }
  ],
  "materials": [
    {
      "name": "mia_material1SG",
      "pbrMetallicRoughness": {
        "baseColorFactor": [
          0.5,
          0.5,
          0.5,
          1
        ],
        "metallicFactor": 0,
        "roughnessFactor": 1
      },
      "emissiveFactor": [
        0,
        0,
        0
      ],
      "alphaMode": "OPAQUE",
      "doubleSided": false
    },
    {
      "name": "lambert2SG",
      "pbrMetallicRoughness": {
        "baseColorTexture": {
          "index": 0
        },
        "baseColorFactor": [
          1,
          1,
          1,
          1
        ],
        "metallicFactor": 0,
        "roughnessFactor": 1
      },
      "emissiveFactor": [
        0,
        0,
        0
      ],
      "alphaMode": "OPAQUE",
      "doubleSided": false
    }
  ],
  "meshes": [
    {
      "name": "Frame_1",
      "primitives": [
        {
          "attributes": {
            "POSITION": 0,
            "NORMAL": 1,
            "TEXCOORD_0": 2
          },
          "indices": 3,
          "material": 0,
          "mode": 4
        },
        {
          "attributes": {
            "POSITION": 4,
            "NORMAL": 5,
            "TEXCOORD_0": 6
          },
          "indices": 7,
          "material": 1,
          "mode": 4
        }
      ]
    }
  ],
  "nodes": [
    {
      "name": "Frame",
      "mesh": 0
    }
  ],
  "samplers": [
    {
      "magFilter": 9729,
      "minFilter": 9986,
      "wrapS": 10497,
      "wrapT": 10497
    }
  ],
  "scene": 0,
  "scenes": [
    {
      "nodes": [
        0
      ]
    }
  ],
  "textures": [
    {
      "name": "Daisy",
      "sampler": 0,
      "source": 0
    }
  ]
}
