{
  "accessors": [
    {
      "name": "Wall_Art_Classical_Plane-Mesh_0_positions",
      "componentType": 5126,
      "count": 120,
      "min": [
        -4.945537090301514,
        0.005464000161737204,
        -0.22944599390029907
      ],
      "max": [
        4.945537090301514,
        13.490951538085938,
        0.6173009872436523
      ],
      "type": "VEC3",
      "bufferView": 0,
      "byteOffset": 0
    },
    {
      "name": "Wall_Art_Classical_Plane-Mesh_0_normals",
      "componentType": 5126,
      "count": 120,
      "min": [
        -1,
        -1,
        -1
      ],
      "max": [
        1,
        1,
        0.9999768733978271
      ],
      "type": "VEC3",
      "bufferView": 1,
      "byteOffset": 0
    },
    {
      "name": "Wall_Art_Classical_Plane-Mesh_0_indices",
      "componentType": 5123,
      "count": 213,
      "min": [
        0
      ],
      "max": [
        119
      ],
      "type": "SCALAR",
      "bufferView": 2,
      "byteOffset": 0
    },
    {
      "name": "Wall_Art_Classical_Plane-Mesh_1_positions",
      "componentType": 5126,
      "count": 44,
      "min": [
        -3.782654047012329,
        1.2637419700622559,
        -9.999999974752427e-7
      ],
      "max": [
        3.764364004135132,
        10.861750602722168,
        9.999999974752427e-7
      ],
      "type": "VEC3",
      "bufferView": 0,
      "byteOffset": 1440
    },
    {
      "name": "Wall_Art_Classical_Plane-Mesh_1_normals",
      "componentType": 5126,
      "count": 44,
      "min": [
        0,
        0,
        -1
      ],
      "max": [
        0,
        0,
        -1
      ],
      "type": "VEC3",
      "bufferView": 1,
      "byteOffset": 1440
    },
    {
      "name": "Wall_Art_Classical_Plane-Mesh_1_indices",
      "componentType": 5123,
      "count": 153,
      "min": [
        0
      ],
      "max": [
        43
      ],
      "type": "SCALAR",
      "bufferView": 2,
      "byteOffset": 428
    },
    {
      "name": "Wall_Art_Classical_Plane-Mesh_2_positions",
      "componentType": 5126,
      "count": 23,
      "min": [
        -3.782654047012329,
        7.936389923095703,
        -9.999999974752427e-7
      ],
      "max": [
        3.764364004135132,
        12.262117385864258,
        9.999999974752427e-7
      ],
      "type": "VEC3",
      "bufferView": 0,
      "byteOffset": 1968
    },
    {
      "name": "Wall_Art_Classical_Plane-Mesh_2_normals",
      "componentType": 5126,
      "count": 23,
      "min": [
        0,
        0,
        -1
      ],
      "max": [
        0,
        0,
        -1
      ],
      "type": "VEC3",
      "bufferView": 1,
      "byteOffset": 1968
    },
    {
      "name": "Wall_Art_Classical_Plane-Mesh_2_indices",
      "componentType": 5123,
      "count": 63,
      "min": [
        0
      ],
      "max": [
        22
      ],
      "type": "SCALAR",
      "bufferView": 2,
      "byteOffset": 736
    },
    {
      "name": "Wall_Art_Classical_Plane-Mesh_3_positions",
      "componentType": 5126,
      "count": 26,
      "min": [
        -3.782654047012329,
        3.6253459453582764,
        -9.999999974752427e-7
      ],
      "max": [
        3.764364004135132,
        9.965184211730957,
        9.999999974752427e-7
      ],
      "type": "VEC3",
      "bufferView": 0,
      "byteOffset": 2244
    },
    {
      "name": "Wall_Art_Classical_Plane-Mesh_3_normals",
      "componentType": 5126,
      "count": 26,
      "min": [
        0,
        0,
        -1
      ],
      "max": [
        0,
        0,
        -1
      ],
      "type": "VEC3",
      "bufferView": 1,
      "byteOffset": 2244
    },
    {
      "name": "Wall_Art_Classical_Plane-Mesh_3_indices",
      "componentType": 5123,
      "count": 66,
      "min": [
        0
      ],
      "max": [
        25
      ],
      "type": "SCALAR",
      "bufferView": 2,
      "byteOffset": 864
    }
  ],
  "asset": {
    "generator": "obj2gltf",
    "version": "2.0"
  },
  "buffers": [
    {
      "name": "Wall_Art_Classical_01",
      "byteLength": 6108,
      "uri": "data:application/octet-stream;base64,"
    }
  ],
  "bufferViews": [
    {
      "name": "bufferView_0",
      "buffer": 0,
      "byteLength": 2556,
      "byteOffset": 0,
      "byteStride": 12,
      "target": 34962
    },
    {
      "name": "bufferView_1",
      "buffer": 0,
      "byteLength": 2556,
      "byteOffset": 2556,
      "byteStride": 12,
      "target": 34962
    },
    {
      "name": "bufferView_2",
      "buffer": 0,
      "byteLength": 996,
      "byteOffset": 5112,
      "target": 34963
    }
  ],
  "materials": [
    {
      "name": "DD9944",
      "pbrMetallicRoughness": {
        "baseColorFactor": [
          0.866667,
          0.6,
          0.266667,
          1
        ],
        "metallicFactor": 0,
        "roughnessFactor": 0.903921569
      },
      "emissiveFactor": [
        0,
        0,
        0
      ],
      "alphaMode": "OPAQUE",
      "doubleSided": false
    },
    {
      "name": "1A1A1A",
      "pbrMetallicRoughness": {
        "baseColorFactor": [
          0.101961,
          0.101961,
          0.101961,
          1
        ],
        "metallicFactor": 0,
        "roughnessFactor": 0.903921569
      },
      "emissiveFactor": [
        0,
        0,
        0
      ],
      "alphaMode": "OPAQUE",
      "doubleSided": false
    },
    {
      "name": "4CAF50",
      "pbrMetallicRoughness": {
        "baseColorFactor": [
          0.298039,
          0.686275,
          0.313726,
          1
        ],
        "metallicFactor": 0,
        "roughnessFactor": 0.903921569
      },
      "emissiveFactor": [
        0,
        0,
        0
      ],
      "alphaMode": "OPAQUE",
      "doubleSided": false
    },
    {
      "name": "8BC34A",
      "pbrMetallicRoughness": {
        "baseColorFactor": [
          0.545098,
          0.764706,
          0.290196,
          1
        ],
        "metallicFactor": 0,
        "roughnessFactor": 0.903921569
      },
      "emissiveFactor": [
        0,
        0,
        0
      ],
      "alphaMode": "OPAQUE",
      "doubleSided": false
    }
  ],
  "meshes": [
    {
      "name": "Wall_Art_Classical_Plane-Mesh",
      "primitives": [
        {
          "attributes": {
            "POSITION": 0,
            "NORMAL": 1
          },
          "indices": 2,
          "material": 0,
          "mode": 4
        },
        {
          "attributes": {
            "POSITION": 3,
            "NORMAL": 4
          },
          "indices": 5,
          "material": 1,
          "mode": 4
        },
        {
          "attributes": {
            "POSITION": 6,
            "NORMAL": 7
          },
          "indices": 8,
          "material": 2,
          "mode": 4
        },
        {
          "attributes": {
            "POSITION": 9,
            "NORMAL": 10
          },
          "indices": 11,
          "material": 3,
          "mode": 4
        }
      ]
    }
  ],
  "nodes": [
    {
      "name": "Wall_Art_Classical_Plane",
      "mesh": 0
    }
  ],
  "scene": 0,
  "scenes": [
    {
      "nodes": [
        0
      ]
    }
  ]
}
